<svg width="7" height="11" viewBox="0 0 7 11" fill="none" xmlns="http://www.w3.org/2000/svg">
<path d="M1.50189 11.0002C1.37029 11.0009 1.23982 10.9757 1.11799 10.9259C0.996148 10.8762 0.885332 10.8029 0.791892 10.7102C0.698164 10.6172 0.62377 10.5066 0.573001 10.3848C0.522232 10.2629 0.496094 10.1322 0.496094 10.0002C0.496094 9.86816 0.522232 9.73746 0.573001 9.6156C0.62377 9.49374 0.698164 9.38314 0.791892 9.29017L4.10189 6.00017L0.921892 2.69017C0.735641 2.50281 0.6311 2.24936 0.6311 1.98517C0.6311 1.72099 0.735641 1.46754 0.921892 1.28017C1.01486 1.18644 1.12546 1.11205 1.24732 1.06128C1.36917 1.01051 1.49988 0.984375 1.63189 0.984375C1.7639 0.984375 1.89461 1.01051 2.01647 1.06128C2.13833 1.11205 2.24893 1.18644 2.34189 1.28017L6.20189 5.28017C6.38512 5.4671 6.48775 5.71842 6.48775 5.98017C6.48775 6.24193 6.38512 6.49324 6.20189 6.68017L2.20189 10.6802C2.11213 10.7771 2.00406 10.8553 1.88391 10.9102C1.76376 10.9651 1.63392 10.9957 1.50189 11.0002Z" fill="#0A213E" fill-opacity="0.6"/>
</svg>
