<svg width="20" height="21" viewBox="0 0 20 21" fill="none" xmlns="http://www.w3.org/2000/svg">
<path d="M19 4.99991H14V3.32991C13.9765 2.68973 13.7002 2.08497 13.2316 1.64821C12.7629 1.21144 12.1402 0.978307 11.5 0.999914H8.5C7.85975 0.978307 7.23706 1.21144 6.76843 1.64821C6.2998 2.08497 6.02346 2.68973 6 3.32991V4.99991H1C0.734784 4.99991 0.48043 5.10527 0.292893 5.29281C0.105357 5.48034 0 5.7347 0 5.99991C0 6.26513 0.105357 6.51948 0.292893 6.70702C0.48043 6.89456 0.734784 6.99991 1 6.99991H2V17.9999C2 18.7956 2.31607 19.5586 2.87868 20.1212C3.44129 20.6838 4.20435 20.9999 5 20.9999H15C15.7956 20.9999 16.5587 20.6838 17.1213 20.1212C17.6839 19.5586 18 18.7956 18 17.9999V6.99991H19C19.2652 6.99991 19.5196 6.89456 19.7071 6.70702C19.8946 6.51948 20 6.26513 20 5.99991C20 5.7347 19.8946 5.48034 19.7071 5.29281C19.5196 5.10527 19.2652 4.99991 19 4.99991ZM8 3.32991C8 3.16991 8.21 2.99991 8.5 2.99991H11.5C11.79 2.99991 12 3.16991 12 3.32991V4.99991H8V3.32991ZM16 17.9999C16 18.2651 15.8946 18.5195 15.7071 18.707C15.5196 18.8946 15.2652 18.9999 15 18.9999H5C4.73478 18.9999 4.48043 18.8946 4.29289 18.707C4.10536 18.5195 4 18.2651 4 17.9999V6.99991H16V17.9999Z" fill="#0A213E" fill-opacity="0.6"/>
</svg>
