<svg width="18" height="19" viewBox="0 0 18 19" fill="none" xmlns="http://www.w3.org/2000/svg">
<path d="M17.12 6.21L12.29 1.38C11.7279 0.81723 10.9654 0.5007 10.17 0.5H3C2.20435 0.5 1.44129 0.816071 0.87868 1.37868C0.316071 1.94129 0 2.70435 0 3.5V15.5C0 16.2956 0.316071 17.0587 0.87868 17.6213C1.44129 18.1839 2.20435 18.5 3 18.5H15C15.7956 18.5 16.5587 18.1839 17.1213 17.6213C17.6839 17.0587 18 16.2956 18 15.5V8.33C17.9993 7.53462 17.6828 6.77207 17.12 6.21ZM7 16.5V14.5H11V16.5H7ZM16 15.5C16 15.7652 15.8946 16.0196 15.7071 16.2071C15.5196 16.3946 15.2652 16.5 15 16.5H13V13.5C13 13.2348 12.8946 12.9804 12.7071 12.7929C12.5196 12.6054 12.2652 12.5 12 12.5H6C5.73478 12.5 5.48043 12.6054 5.29289 12.7929C5.10536 12.9804 5 13.2348 5 13.5V16.5H3C2.73478 16.5 2.48043 16.3946 2.29289 16.2071C2.10536 16.0196 2 15.7652 2 15.5V3.5C2 3.23478 2.10536 2.98043 2.29289 2.79289C2.48043 2.60536 2.73478 2.5 3 2.5H5V7.5C5 7.76522 5.10536 8.01957 5.29289 8.20711C5.48043 8.39464 5.73478 8.5 6 8.5H10C10.2652 8.5 10.5196 8.39464 10.7071 8.20711C10.8946 8.01957 11 7.76522 11 7.5C11 7.23478 10.8946 6.98043 10.7071 6.79289C10.5196 6.60536 10.2652 6.5 10 6.5H7V2.5H10.17C10.4348 2.50368 10.6884 2.60727 10.88 2.79L15.71 7.62C15.8027 7.71344 15.876 7.82426 15.9258 7.94609C15.9755 8.06793 16.0008 8.19839 16 8.33V15.5Z" fill="white"/>
</svg>
