<svg width="24" height="24" viewBox="0 0 24 24" fill="none" xmlns="http://www.w3.org/2000/svg">
<path d="M15.5002 11.9998C15.5009 12.1314 15.4757 12.2619 15.426 12.3837C15.3762 12.5056 15.3029 12.6164 15.2102 12.7098L11.2102 16.7098C11.1169 16.8031 11.0063 16.877 10.8844 16.9275C10.7626 16.9779 10.632 17.0039 10.5002 17.0039C10.3683 17.0039 10.2378 16.9779 10.1159 16.9275C9.99411 16.877 9.88342 16.8031 9.79018 16.7098C9.69695 16.6166 9.62299 16.5059 9.57252 16.3841C9.52206 16.2622 9.49609 16.1317 9.49609 15.9998C9.49609 15.868 9.52206 15.7374 9.57252 15.6156C9.62299 15.4937 9.69695 15.3831 9.79018 15.2898L13.1002 11.9998L9.92018 8.69981C9.81789 8.60782 9.73569 8.49572 9.6787 8.3705C9.62171 8.24529 9.59118 8.10967 9.589 7.97211C9.58682 7.83456 9.61304 7.69803 9.66603 7.57108C9.71903 7.44412 9.79764 7.32947 9.89697 7.23428C9.99629 7.1391 10.1142 7.06543 10.2433 7.01789C10.3724 6.97034 10.5099 6.94995 10.6472 6.95798C10.7846 6.966 10.9188 7.00228 11.0414 7.06454C11.1641 7.1268 11.2726 7.2137 11.3602 7.31981L15.2202 11.3198C15.3965 11.5027 15.4966 11.7458 15.5002 11.9998Z" fill="#0A213E" fill-opacity="0.6"/>
</svg>
