<svg width="30" height="30" viewBox="0 0 30 30" fill="none" xmlns="http://www.w3.org/2000/svg">
<path d="M10.8008 6.53726C10.6745 6.43201 10.5286 6.35271 10.3716 6.3039C10.2146 6.2551 10.0495 6.23774 9.8858 6.25284C9.72208 6.26793 9.56295 6.31518 9.41751 6.39187C9.27208 6.46856 9.1432 6.57319 9.03827 6.69976L2.78827 14.1998C2.60441 14.4234 2.50391 14.704 2.50391 14.9935C2.50391 15.283 2.60441 15.5636 2.78827 15.7873L8.82577 23.2873C8.94341 23.4323 9.09206 23.5491 9.26079 23.6291C9.42951 23.7092 9.61402 23.7504 9.80077 23.7498C10.0373 23.7506 10.2692 23.6842 10.4696 23.5585C10.6699 23.4327 10.8305 23.2527 10.9326 23.0393C11.0347 22.826 11.0742 22.588 11.0464 22.3531C11.0186 22.1182 10.9248 21.896 10.7758 21.7123L5.36327 14.9998L10.9633 8.29976C11.0685 8.17345 11.1478 8.02762 11.1966 7.87061C11.2454 7.71361 11.2628 7.54852 11.2477 7.3848C11.2326 7.22107 11.1853 7.06194 11.1087 6.91651C11.032 6.77107 10.9273 6.6422 10.8008 6.53726Z" fill="#00B4D8"/>
<path d="M27.2233 14.2123L21.2483 6.71228C21.1451 6.58387 21.0176 6.47711 20.8731 6.39814C20.7285 6.31918 20.5698 6.26956 20.406 6.25213C20.2422 6.23471 20.0766 6.24982 19.9187 6.29661C19.7608 6.3434 19.6137 6.42094 19.4858 6.52478C19.3574 6.62793 19.2506 6.75544 19.1717 6.89999C19.0927 7.04453 19.0431 7.20326 19.0256 7.36705C19.0082 7.53083 19.0233 7.69645 19.0701 7.85437C19.1169 8.0123 19.1945 8.15942 19.2983 8.28728L24.6358 14.9998L19.0358 21.7123C18.9305 21.8386 18.8512 21.9844 18.8024 22.1414C18.7536 22.2984 18.7363 22.4635 18.7514 22.6272C18.7665 22.791 18.8137 22.9501 18.8904 23.0955C18.9671 23.241 19.0717 23.3698 19.1983 23.4748C19.4249 23.6566 19.7078 23.7539 19.9983 23.7498C20.1819 23.7501 20.3634 23.7099 20.5297 23.6321C20.6961 23.5544 20.8433 23.4409 20.9608 23.2998L27.2108 15.7998C27.3964 15.5776 27.4991 15.2978 27.5014 15.0083C27.5037 14.7187 27.4054 14.4374 27.2233 14.2123Z" fill="#00B4D8"/>
</svg>
