<svg width="30" height="30" viewBox="0 0 30 30" fill="none" xmlns="http://www.w3.org/2000/svg">
<path d="M23.75 11.25C22.9763 11.2522 22.2222 11.4936 21.5912 11.9412C20.9601 12.3888 20.4829 13.0206 20.225 13.75H3.75C3.41848 13.75 3.10054 13.8817 2.86612 14.1161C2.6317 14.3506 2.5 14.6685 2.5 15C2.5 15.3315 2.6317 15.6495 2.86612 15.8839C3.10054 16.1183 3.41848 16.25 3.75 16.25H20.225C20.4543 16.8986 20.8576 17.4716 21.3908 17.9064C21.924 18.3411 22.5665 18.6208 23.248 18.7148C23.9294 18.8088 24.6237 18.7136 25.2546 18.4395C25.8856 18.1654 26.429 17.723 26.8254 17.1608C27.2218 16.5985 27.4559 15.938 27.5021 15.2516C27.5482 14.5652 27.4047 13.8794 27.0872 13.2691C26.7696 12.6588 26.2903 12.1477 25.7017 11.7915C25.1132 11.4354 24.4379 11.2481 23.75 11.25ZM23.75 16.25C23.5028 16.25 23.2611 16.1767 23.0555 16.0394C22.85 15.902 22.6898 15.7068 22.5951 15.4784C22.5005 15.25 22.4758 14.9986 22.524 14.7562C22.5723 14.5137 22.6913 14.2909 22.8661 14.1161C23.0409 13.9413 23.2637 13.8223 23.5061 13.774C23.7486 13.7258 23.9999 13.7506 24.2284 13.8452C24.4568 13.9398 24.652 14.1 24.7893 14.3056C24.9267 14.5111 25 14.7528 25 15C25 15.3315 24.8683 15.6495 24.6339 15.8839C24.3995 16.1183 24.0815 16.25 23.75 16.25Z" fill="#357266"/>
<path d="M3.75 8.74989H5.225C5.48776 9.47383 5.96704 10.0993 6.59771 10.5413C7.22838 10.9834 7.97985 11.2205 8.75 11.2205C9.52015 11.2205 10.2716 10.9834 10.9023 10.5413C11.533 10.0993 12.0122 9.47383 12.275 8.74989H26.25C26.5815 8.74989 26.8995 8.6182 27.1339 8.38378C27.3683 8.14936 27.5 7.83141 27.5 7.49989C27.5 7.16837 27.3683 6.85043 27.1339 6.61601C26.8995 6.38159 26.5815 6.24989 26.25 6.24989H12.275C12.0122 5.52595 11.533 4.90047 10.9023 4.45844C10.2716 4.01642 9.52015 3.7793 8.75 3.7793C7.97985 3.7793 7.22838 4.01642 6.59771 4.45844C5.96704 4.90047 5.48776 5.52595 5.225 6.24989H3.75C3.41848 6.24989 3.10054 6.38159 2.86612 6.61601C2.6317 6.85043 2.5 7.16837 2.5 7.49989C2.5 7.83141 2.6317 8.14936 2.86612 8.38378C3.10054 8.6182 3.41848 8.74989 3.75 8.74989ZM8.75 6.24989C8.99723 6.24989 9.2389 6.3232 9.44446 6.46056C9.65002 6.59791 9.81024 6.79313 9.90485 7.02154C9.99946 7.24995 10.0242 7.50128 9.97598 7.74376C9.92775 7.98623 9.8087 8.20896 9.63388 8.38378C9.45907 8.55859 9.23634 8.67764 8.99386 8.72587C8.75139 8.77411 8.50005 8.74935 8.27165 8.65474C8.04324 8.56013 7.84801 8.39992 7.71066 8.19436C7.57331 7.98879 7.5 7.74712 7.5 7.49989C7.5 7.16837 7.6317 6.85043 7.86612 6.61601C8.10054 6.38159 8.41848 6.24989 8.75 6.24989Z" fill="#357266"/>
<path d="M26.25 21.2499H17.275C17.0122 20.526 16.533 19.9005 15.9023 19.4584C15.2716 19.0164 14.5201 18.7793 13.75 18.7793C12.9799 18.7793 12.2284 19.0164 11.5977 19.4584C10.967 19.9005 10.4878 20.526 10.225 21.2499H3.75C3.41848 21.2499 3.10054 21.3816 2.86612 21.616C2.6317 21.8504 2.5 22.1684 2.5 22.4999C2.5 22.8314 2.6317 23.1494 2.86612 23.3838C3.10054 23.6182 3.41848 23.7499 3.75 23.7499H10.225C10.4878 24.4738 10.967 25.0993 11.5977 25.5413C12.2284 25.9834 12.9799 26.2205 13.75 26.2205C14.5201 26.2205 15.2716 25.9834 15.9023 25.5413C16.533 25.0993 17.0122 24.4738 17.275 23.7499H26.25C26.5815 23.7499 26.8995 23.6182 27.1339 23.3838C27.3683 23.1494 27.5 22.8314 27.5 22.4999C27.5 22.1684 27.3683 21.8504 27.1339 21.616C26.8995 21.3816 26.5815 21.2499 26.25 21.2499ZM13.75 23.7499C13.5028 23.7499 13.2611 23.6766 13.0555 23.5392C12.85 23.4019 12.6898 23.2067 12.5951 22.9782C12.5005 22.7498 12.4758 22.4985 12.524 22.256C12.5722 22.0136 12.6913 21.7908 12.8661 21.616C13.0409 21.4412 13.2637 21.3221 13.5061 21.2739C13.7486 21.2257 13.9999 21.2504 14.2284 21.345C14.4568 21.4397 14.652 21.5999 14.7893 21.8054C14.9267 22.011 15 22.2527 15 22.4999C15 22.8314 14.8683 23.1494 14.6339 23.3838C14.3995 23.6182 14.0815 23.7499 13.75 23.7499Z" fill="#357266"/>
</svg>
