<svg width="30" height="30" viewBox="0 0 30 30" fill="none" xmlns="http://www.w3.org/2000/svg">
<path d="M18.75 20H11.25C10.9185 20 10.6005 20.1317 10.3661 20.3661C10.1317 20.6005 10 20.9185 10 21.25C10 21.5815 10.1317 21.8995 10.3661 22.1339C10.6005 22.3683 10.9185 22.5 11.25 22.5H18.75C19.0815 22.5 19.3995 22.3683 19.6339 22.1339C19.8683 21.8995 20 21.5815 20 21.25C20 20.9185 19.8683 20.6005 19.6339 20.3661C19.3995 20.1317 19.0815 20 18.75 20Z" fill="#3066BE"/>
<path d="M11.25 17.5H15C15.3315 17.5 15.6495 17.3683 15.8839 17.1339C16.1183 16.8995 16.25 16.5815 16.25 16.25C16.25 15.9185 16.1183 15.6005 15.8839 15.3661C15.6495 15.1317 15.3315 15 15 15H11.25C10.9185 15 10.6005 15.1317 10.3661 15.3661C10.1317 15.6005 10 15.9185 10 16.25C10 16.5815 10.1317 16.8995 10.3661 17.1339C10.6005 17.3683 10.9185 17.5 11.25 17.5Z" fill="#3066BE"/>
<path d="M24.675 10.4127L17.875 2.91272C17.7581 2.78323 17.6155 2.67964 17.4562 2.60859C17.2968 2.53755 17.1244 2.50064 16.95 2.50022H8.2C7.78469 2.49527 7.37247 2.57218 6.98688 2.72655C6.60129 2.88092 6.24988 3.10973 5.95273 3.39992C5.65557 3.69011 5.41849 4.03599 5.25502 4.41781C5.09155 4.79963 5.0049 5.20991 5 5.62523V24.3752C5.0049 24.7905 5.09155 25.2008 5.25502 25.5826C5.41849 25.9645 5.65557 26.3103 5.95273 26.6005C6.24988 26.8907 6.60129 27.1195 6.98688 27.2739C7.37247 27.4283 7.78469 27.5052 8.2 27.5002H21.8C22.2153 27.5052 22.6275 27.4283 23.0131 27.2739C23.3987 27.1195 23.7501 26.8907 24.0473 26.6005C24.3444 26.3103 24.5815 25.9645 24.745 25.5826C24.9084 25.2008 24.9951 24.7905 25 24.3752V11.2502C24.9992 10.9404 24.8834 10.642 24.675 10.4127ZM17.5 6.25023L20.925 10.0002H18.425C18.2941 9.99232 18.1661 9.95843 18.0484 9.90052C17.9308 9.8426 17.8258 9.76184 17.7397 9.66293C17.6536 9.56402 17.5881 9.44895 17.5469 9.32444C17.5057 9.19993 17.4898 9.06847 17.5 8.93773V6.25023ZM21.8 25.0002H8.2C8.11297 25.0053 8.02579 24.9931 7.94347 24.9644C7.86115 24.9357 7.7853 24.8911 7.72026 24.833C7.65523 24.775 7.6023 24.7046 7.56451 24.6261C7.52671 24.5475 7.50479 24.4623 7.5 24.3752V5.62523C7.50479 5.53818 7.52671 5.45293 7.56451 5.37437C7.6023 5.29581 7.65523 5.22549 7.72026 5.16742C7.7853 5.10936 7.86115 5.0647 7.94347 5.03601C8.02579 5.00732 8.11297 4.99516 8.2 5.00023H15V8.93773C14.9798 9.8585 15.3247 10.7499 15.9593 11.4173C16.594 12.0847 17.4669 12.474 18.3875 12.5002H22.5V24.3752C22.4952 24.4623 22.4733 24.5475 22.4355 24.6261C22.3977 24.7046 22.3448 24.775 22.2797 24.833C22.2147 24.8911 22.1389 24.9357 22.0565 24.9644C21.9742 24.9931 21.887 25.0053 21.8 25.0002Z" fill="#3066BE"/>
</svg>
