<svg width="30" height="30" viewBox="0 0 30 30" fill="none" xmlns="http://www.w3.org/2000/svg">
<path d="M25 17.4998H19.625L20.5375 12.4998H25C25.3315 12.4998 25.6495 12.3682 25.8839 12.1337C26.1183 11.8993 26.25 11.5814 26.25 11.2498C26.25 10.9183 26.1183 10.6004 25.8839 10.366C25.6495 10.1315 25.3315 9.99985 25 9.99985H20.9875L21.85 5.23735C21.8841 5.07023 21.8836 4.8979 21.8486 4.73098C21.8136 4.56405 21.7448 4.40605 21.6464 4.26671C21.5481 4.12737 21.4222 4.00963 21.2767 3.92075C21.1311 3.83186 20.9689 3.7737 20.8 3.74985C20.6321 3.70984 20.4577 3.70506 20.2878 3.73578C20.118 3.76651 19.9563 3.83209 19.813 3.92838C19.6698 4.02468 19.548 4.1496 19.4554 4.29528C19.3628 4.44097 19.3014 4.60425 19.275 4.77485L18.3375 9.99985H13.4875L14.35 5.23735C14.3841 5.07023 14.3836 4.8979 14.3486 4.73098C14.3136 4.56405 14.2448 4.40605 14.1464 4.26671C14.0481 4.12737 13.9222 4.00963 13.7767 3.92075C13.6311 3.83186 13.4689 3.7737 13.3 3.74985C13.1321 3.70984 12.9577 3.70506 12.7878 3.73578C12.618 3.76651 12.4563 3.83209 12.313 3.92838C12.1698 4.02468 12.048 4.1496 11.9554 4.29528C11.8628 4.44097 11.8014 4.60425 11.775 4.77485L10.8375 9.99985H5C4.66848 9.99985 4.35054 10.1315 4.11612 10.366C3.8817 10.6004 3.75 10.9183 3.75 11.2498C3.75 11.5814 3.8817 11.8993 4.11612 12.1337C4.35054 12.3682 4.66848 12.4998 5 12.4998H10.375L9.4625 17.4998H5C4.66848 17.4998 4.35054 17.6315 4.11612 17.866C3.8817 18.1004 3.75 18.4183 3.75 18.7498C3.75 19.0814 3.8817 19.3993 4.11612 19.6337C4.35054 19.8682 4.66848 19.9998 5 19.9998H9.0125L8.15 24.7623C8.11592 24.9295 8.1164 25.1018 8.15141 25.2687C8.18642 25.4356 8.25522 25.5936 8.35358 25.733C8.45194 25.8723 8.57777 25.9901 8.72334 26.079C8.8689 26.1678 9.03112 26.226 9.2 26.2498C9.36792 26.2899 9.54231 26.2946 9.71218 26.2639C9.88204 26.2332 10.0437 26.1676 10.187 26.0713C10.3302 25.975 10.452 25.8501 10.5446 25.7044C10.6372 25.5587 10.6986 25.3954 10.725 25.2248L11.6625 19.9998H16.5125L15.65 24.7623C15.6159 24.9295 15.6164 25.1018 15.6514 25.2687C15.6864 25.4356 15.7552 25.5936 15.8536 25.733C15.9519 25.8723 16.0778 25.9901 16.2233 26.079C16.3689 26.1678 16.5311 26.226 16.7 26.2498C16.8679 26.2899 17.0423 26.2946 17.2122 26.2639C17.382 26.2332 17.5437 26.1676 17.687 26.0713C17.8302 25.975 17.952 25.8501 18.0446 25.7044C18.1372 25.5587 18.1986 25.3954 18.225 25.2248L19.1625 19.9998H25C25.3315 19.9998 25.6495 19.8682 25.8839 19.6337C26.1183 19.3993 26.25 19.0814 26.25 18.7498C26.25 18.4183 26.1183 18.1004 25.8839 17.866C25.6495 17.6315 25.3315 17.4998 25 17.4998ZM12.125 17.4998L13.0375 12.4998H17.875L16.9625 17.4998H12.125Z" fill="#724E91"/>
</svg>
