<svg width="31" height="31" viewBox="0 0 31 31" fill="none" xmlns="http://www.w3.org/2000/svg">
<path d="M15.4987 20.1608C16.2769 20.1608 16.9078 19.5299 16.9078 18.7517L16.9079 13.585H21.1351C21.9133 13.585 22.5442 12.9541 22.5442 12.1759V6.53955C22.5442 5.76134 21.9133 5.13044 21.1351 5.13044H16.9077V1.40911C16.9076 0.630898 16.2768 0 15.4985 0C14.7203 0 14.0894 0.630898 14.0894 1.40911V5.1305H9.86223C9.08402 5.1305 8.45312 5.7614 8.45312 6.53961V12.176C8.45312 12.9542 9.08402 13.5851 9.86223 13.5851H14.0896L14.0895 17.4889C10.998 18.1399 8.67012 20.8889 8.67012 24.1714C8.67019 27.9368 11.7334 31 15.4987 31C19.264 31 22.3273 27.9368 22.3273 24.1713C22.3273 23.3931 21.6964 22.7622 20.9182 22.7622C20.14 22.7622 19.5091 23.3931 19.5091 24.1713C19.5091 26.3827 17.7101 28.1818 15.4987 28.1818C13.2873 28.1818 11.4884 26.3826 11.4884 24.1713C11.4884 21.96 13.2873 20.1608 15.4987 20.1608Z" fill="#F4BE2C"/>
</svg>
