<svg width="30" height="30" viewBox="0 0 30 30" fill="none" xmlns="http://www.w3.org/2000/svg">
<path d="M21.25 9.99971H20V7.63721C20 6.31112 19.4732 5.03936 18.5355 4.10167C17.5979 3.16399 16.3261 2.63721 15 2.63721C13.6739 2.63721 12.4021 3.16399 11.4645 4.10167C10.5268 5.03936 10 6.31112 10 7.63721V9.99971H8.75C7.75544 9.99971 6.80161 10.3948 6.09835 11.0981C5.39509 11.8013 5 12.7551 5 13.7497V23.7497C5 24.7443 5.39509 25.6981 6.09835 26.4014C6.80161 27.1046 7.75544 27.4997 8.75 27.4997H21.25C22.2446 27.4997 23.1984 27.1046 23.9017 26.4014C24.6049 25.6981 25 24.7443 25 23.7497V13.7497C25 12.7551 24.6049 11.8013 23.9017 11.0981C23.1984 10.3948 22.2446 9.99971 21.25 9.99971ZM12.5 7.63721C12.4832 6.95633 12.7368 6.29652 13.2054 5.8022C13.6739 5.30789 14.3192 5.01934 15 4.99971C15.6808 5.01934 16.3261 5.30789 16.7946 5.8022C17.2632 6.29652 17.5168 6.95633 17.5 7.63721V9.99971H12.5V7.63721ZM22.5 23.7497C22.5 24.0812 22.3683 24.3992 22.1339 24.6336C21.8995 24.868 21.5815 24.9997 21.25 24.9997H8.75C8.41848 24.9997 8.10054 24.868 7.86612 24.6336C7.6317 24.3992 7.5 24.0812 7.5 23.7497V13.7497C7.5 13.4182 7.6317 13.1002 7.86612 12.8658C8.10054 12.6314 8.41848 12.4997 8.75 12.4997H21.25C21.5815 12.4997 21.8995 12.6314 22.1339 12.8658C22.3683 13.1002 22.5 13.4182 22.5 13.7497V23.7497Z" fill="#E03B8B"/>
<path d="M15 15C14.2583 15 13.5333 15.2199 12.9166 15.632C12.2999 16.044 11.8193 16.6297 11.5355 17.3149C11.2516 18.0002 11.1774 18.7542 11.3221 19.4816C11.4668 20.209 11.8239 20.8772 12.3484 21.4017C12.8728 21.9261 13.541 22.2833 14.2684 22.4279C14.9958 22.5726 15.7498 22.4984 16.4351 22.2145C17.1203 21.9307 17.706 21.4501 18.118 20.8334C18.5301 20.2167 18.75 19.4917 18.75 18.75C18.75 17.7554 18.3549 16.8016 17.6517 16.0983C16.9484 15.3951 15.9946 15 15 15ZM15 20C14.7528 20 14.5111 19.9267 14.3055 19.7893C14.1 19.652 13.9398 19.4568 13.8452 19.2284C13.7505 18.9999 13.7258 18.7486 13.774 18.5061C13.8223 18.2637 13.9413 18.0409 14.1161 17.8661C14.2909 17.6913 14.5137 17.5722 14.7561 17.524C14.9986 17.4758 15.2499 17.5005 15.4784 17.5952C15.7068 17.6898 15.902 17.85 16.0393 18.0555C16.1767 18.2611 16.25 18.5028 16.25 18.75C16.25 19.0815 16.1183 19.3995 15.8839 19.6339C15.6495 19.8683 15.3315 20 15 20Z" fill="#E03B8B"/>
</svg>
