<svg width="30" height="30" viewBox="0 0 30 30" fill="none" xmlns="http://www.w3.org/2000/svg">
<path d="M10.7638 27.5C10.1539 27.4964 9.56159 27.2946 9.07633 26.925L6.48883 25C5.89171 24.5344 5.49552 23.8579 5.38161 23.1094C5.2677 22.3608 5.44473 21.5971 5.87633 20.975C6.10469 20.6378 6.24981 20.2513 6.29979 19.8471C6.34977 19.4429 6.30317 19.0327 6.16383 18.65L6.08883 18.45C5.9918 18.1036 5.81446 17.785 5.57121 17.5201C5.32796 17.2551 5.02565 17.0512 4.68883 16.925H4.48883C3.75866 16.6795 3.15484 16.1558 2.80846 15.4678C2.46209 14.7797 2.40113 13.9827 2.63883 13.25L3.66383 10C3.75818 9.62345 3.9319 9.27141 4.17334 8.96745C4.41479 8.66348 4.71839 8.41461 5.06383 8.2375C5.38551 8.07175 5.73749 7.973 6.09845 7.94722C6.45941 7.92143 6.82184 7.96916 7.16383 8.0875C7.53618 8.21282 7.93351 8.2453 8.32127 8.18212C8.70903 8.11895 9.0755 7.96203 9.38883 7.725L9.55132 7.6C9.83494 7.37369 10.0642 7.08663 10.2221 6.75996C10.38 6.43329 10.4626 6.07534 10.4638 5.7125V5.4125C10.4605 4.64766 10.7594 3.91247 11.2955 3.36698C11.8316 2.82149 12.5615 2.50988 13.3263 2.5H16.5138C16.8859 2.501 17.2542 2.57551 17.5974 2.71923C17.9406 2.86295 18.252 3.07307 18.5138 3.3375C19.0642 3.89724 19.3699 4.65253 19.3638 5.4375V5.7875C19.3575 6.13219 19.4322 6.47355 19.5821 6.78404C19.7319 7.09453 19.9526 7.36547 20.2263 7.575L20.3638 7.675C20.6444 7.88538 20.9716 8.0248 21.3177 8.08139C21.6638 8.13798 22.0184 8.11006 22.3513 8L22.7763 7.8625C23.1364 7.74314 23.5168 7.69752 23.8949 7.72837C24.273 7.75922 24.641 7.8659 24.977 8.04205C25.313 8.2182 25.61 8.46021 25.8504 8.75365C26.0909 9.04709 26.2697 9.38594 26.3763 9.75L27.3638 12.9C27.5923 13.628 27.5299 14.4162 27.1896 15.0991C26.8493 15.782 26.2576 16.3065 25.5388 16.5625L25.2888 16.65C24.9211 16.7704 24.5886 16.9793 24.3205 17.2583C24.0525 17.5372 23.857 17.8778 23.7513 18.25C23.6518 18.596 23.6282 18.9594 23.6822 19.3154C23.7361 19.6714 23.8663 20.0115 24.0638 20.3125L24.3888 20.7875C24.8198 21.4131 24.9952 22.1798 24.879 22.9305C24.7628 23.6812 24.3638 24.359 23.7638 24.825L21.2513 26.7625C20.9478 26.9946 20.5999 27.1622 20.2292 27.2548C19.8585 27.3475 19.4727 27.3632 19.0956 27.3012C18.7186 27.2391 18.3582 27.1005 18.0367 26.894C17.7152 26.6874 17.4395 26.4172 17.2263 26.1L17.0763 25.8875C16.8716 25.5798 16.5923 25.329 16.2644 25.1586C15.9365 24.9881 15.5708 24.9034 15.2013 24.9125C14.8488 24.9216 14.5033 25.0135 14.1929 25.1807C13.8824 25.3479 13.6155 25.5857 13.4138 25.875L13.1263 26.2875C12.9131 26.6069 12.6368 26.8793 12.3143 27.0878C11.9918 27.2963 11.6301 27.4366 11.2513 27.5C11.0892 27.5159 10.9259 27.5159 10.7638 27.5ZM5.50133 14.525C6.20719 14.7767 6.84411 15.1906 7.36082 15.7334C7.87754 16.2761 8.25962 16.9326 8.47633 17.65V17.8C8.74624 18.5458 8.83487 19.3451 8.73489 20.1319C8.63491 20.9187 8.34919 21.6704 7.90133 22.325C7.82227 22.4123 7.77849 22.5259 7.77849 22.6437C7.77849 22.7616 7.82227 22.8752 7.90133 22.9625L10.5888 25C10.6239 25.0275 10.6644 25.0473 10.7078 25.0578C10.7511 25.0684 10.7961 25.0696 10.8399 25.0613C10.8838 25.053 10.9253 25.0354 10.9617 25.0098C10.9982 24.9841 11.0287 24.9509 11.0513 24.9125L11.3388 24.5C11.7724 23.8735 12.3515 23.3614 13.0264 23.0077C13.7013 22.6541 14.4519 22.4693 15.2138 22.4693C15.9758 22.4693 16.7264 22.6541 17.4013 23.0077C18.0761 23.3614 18.6552 23.8735 19.0888 24.5L19.2388 24.725C19.2926 24.8012 19.3728 24.8547 19.4638 24.875C19.5056 24.8812 19.5482 24.8788 19.589 24.8681C19.6298 24.8573 19.668 24.8384 19.7013 24.8125L22.2763 22.8625C22.3665 22.791 22.4258 22.6876 22.442 22.5737C22.4583 22.4598 22.4303 22.3439 22.3638 22.25L22.0388 21.775C21.6154 21.1575 21.336 20.4528 21.2213 19.7129C21.1066 18.9729 21.1596 18.2167 21.3763 17.5C21.596 16.7467 21.9934 16.0572 22.535 15.4895C23.0766 14.9217 23.7467 14.4924 24.4888 14.2375L24.7388 14.15C24.843 14.1083 24.9265 14.027 24.971 13.924C25.0155 13.8209 25.0174 13.7045 24.9763 13.6L24.0013 10.4875C23.9779 10.433 23.9437 10.3839 23.9007 10.3431C23.8577 10.3023 23.8069 10.2706 23.7513 10.25C23.7145 10.2313 23.6738 10.2216 23.6326 10.2216C23.5913 10.2216 23.5506 10.2313 23.5138 10.25L23.0888 10.3875C22.3699 10.6248 21.6041 10.6839 20.8572 10.5598C20.1104 10.4357 19.4049 10.1321 18.8013 9.675L18.7513 9.5625C18.1722 9.1239 17.7026 8.55702 17.3794 7.90636C17.0563 7.2557 16.8883 6.53899 16.8888 5.8125V5.425C16.8911 5.30452 16.8462 5.18791 16.7638 5.1C16.6919 5.03501 16.5983 4.99933 16.5013 5H13.3263C13.2754 5.00318 13.2256 5.01638 13.1798 5.03886C13.134 5.06133 13.0931 5.09263 13.0594 5.13095C13.0257 5.16928 12.9999 5.21388 12.9835 5.2622C12.9671 5.31051 12.9604 5.36159 12.9638 5.4125V5.725C12.9639 6.4713 12.7926 7.20765 12.4632 7.87731C12.1338 8.54698 11.655 9.13207 11.0638 9.5875L10.9013 9.7125C10.2635 10.1981 9.51598 10.5194 8.7247 10.648C7.93341 10.7766 7.12263 10.7086 6.36383 10.45C6.30705 10.4309 6.2456 10.4309 6.18883 10.45C6.11828 10.4929 6.06515 10.5593 6.03883 10.6375L5.00133 13.9C4.96516 14.0111 4.97363 14.1319 5.02496 14.2369C5.07628 14.3419 5.16643 14.4228 5.27632 14.4625L5.50133 14.525Z" fill="#3066BE"/>
<path d="M15 19.375C14.1347 19.375 13.2888 19.1184 12.5694 18.6377C11.8499 18.157 11.2892 17.4737 10.958 16.6742C10.6269 15.8748 10.5403 14.9951 10.7091 14.1465C10.8779 13.2978 11.2946 12.5183 11.9064 11.9064C12.5183 11.2946 13.2978 10.8779 14.1465 10.7091C14.9951 10.5403 15.8748 10.6269 16.6742 10.958C17.4737 11.2892 18.157 11.8499 18.6377 12.5694C19.1184 13.2888 19.375 14.1347 19.375 15C19.375 16.1603 18.9141 17.2731 18.0936 18.0936C17.2731 18.9141 16.1603 19.375 15 19.375ZM15 13.125C14.6292 13.125 14.2667 13.235 13.9583 13.441C13.65 13.647 13.4096 13.9399 13.2677 14.2825C13.1258 14.6251 13.0887 15.0021 13.161 15.3658C13.2334 15.7295 13.412 16.0636 13.6742 16.3258C13.9364 16.5881 14.2705 16.7666 14.6342 16.839C14.9979 16.9113 15.3749 16.8742 15.7175 16.7323C16.0601 16.5904 16.353 16.35 16.559 16.0417C16.765 15.7334 16.875 15.3708 16.875 15C16.875 14.5027 16.6775 14.0258 16.3258 13.6742C15.9742 13.3225 15.4973 13.125 15 13.125Z" fill="#3066BE"/>
</svg>
