<svg width="17" height="18" viewBox="0 0 17 18" fill="none" xmlns="http://www.w3.org/2000/svg">
<path d="M10.8982 18C10.6818 18 10.4713 17.9298 10.2982 17.8L6.29818 14.75C6.17582 14.6558 6.07693 14.5346 6.00927 14.3958C5.94161 14.257 5.90701 14.1044 5.90818 13.95V10.68L1.10818 1.46C1.02913 1.30741 0.990731 1.13703 0.996697 0.965286C1.00266 0.793541 1.05279 0.626231 1.14223 0.479497C1.23168 0.332762 1.35743 0.211555 1.50736 0.127567C1.65729 0.0435786 1.82633 -0.000355656 1.99818 2.16836e-06H15.9982C16.1717 3.2436e-05 16.3423 0.0452256 16.4931 0.131138C16.6438 0.217051 16.7697 0.340725 16.8582 0.490002C16.9459 0.642021 16.9922 0.814465 16.9922 0.990002C16.9922 1.16554 16.9459 1.33798 16.8582 1.49L11.8582 10.7V17C11.8595 17.1864 11.8087 17.3694 11.7115 17.5284C11.6143 17.6874 11.4746 17.8161 11.3082 17.9C11.1802 17.9621 11.0404 17.9962 10.8982 18ZM7.89818 13.46L9.89818 14.99V10.44C9.89755 10.2876 9.93176 10.1371 9.99818 10L14.2982 2H3.63818L7.76818 10C7.8411 10.1423 7.87882 10.3001 7.87818 10.46L7.89818 13.46Z" fill="#518EF8"/>
</svg>
